<?xml version="1.0" encoding="UTF-8" standalone="no"?>
<!-- Created with Inkscape (http://www.inkscape.org/) -->

<svg
   width="210mm"
   height="297mm"
   viewBox="0 0 210 297"
   version="1.1"
   id="svg5"
   inkscape:export-filename="/home/billy/Projects/game/assets/player_sprites/player.png"
   inkscape:export-xdpi="32.639999"
   inkscape:export-ydpi="32.639999"
   inkscape:version="1.1.1 (3bf5ae0d25, 2021-09-20)"
   sodipodi:docname="player.svg"
   xmlns:inkscape="http://www.inkscape.org/namespaces/inkscape"
   xmlns:sodipodi="http://sodipodi.sourceforge.net/DTD/sodipodi-0.dtd"
   xmlns="http://www.w3.org/2000/svg"
   xmlns:svg="http://www.w3.org/2000/svg">
  <sodipodi:namedview
     id="namedview7"
     pagecolor="#505050"
     bordercolor="#eeeeee"
     borderopacity="1"
     inkscape:pageshadow="0"
     inkscape:pageopacity="0"
     inkscape:pagecheckerboard="0"
     inkscape:document-units="mm"
     showgrid="false"
     inkscape:zoom="1.5603933"
     inkscape:cx="127.53195"
     inkscape:cy="114.39424"
     inkscape:window-width="1366"
     inkscape:window-height="672"
     inkscape:window-x="0"
     inkscape:window-y="0"
     inkscape:window-maximized="1"
     inkscape:current-layer="layer2" />
  <defs
     id="defs2">
    <linearGradient
       id="linearGradient1804"
       inkscape:swatch="solid">
      <stop
         style="stop-color:#230000;stop-opacity:1;"
         offset="0"
         id="stop1802" />
    </linearGradient>
    <marker
       style="overflow:visible;"
       id="Arrow1Lend"
       refX="0.0"
       refY="0.0"
       orient="auto"
       inkscape:stockid="Arrow1Lend"
       inkscape:isstock="true">
      <path
         transform="scale(0.8) rotate(180) translate(12.5,0)"
         style="fill-rule:evenodd;fill:context-stroke;stroke:context-stroke;stroke-width:1.0pt;"
         d="M 0.0,0.0 L 5.0,-5.0 L -12.5,0.0 L 5.0,5.0 L 0.0,0.0 z "
         id="path7158" />
    </marker>
    <linearGradient
       id="linearGradient6211"
       inkscape:swatch="solid">
      <stop
         style="stop-color:#ff00ff;stop-opacity:1;"
         offset="0"
         id="stop6209" />
    </linearGradient>
  </defs>
  <g
     inkscape:groupmode="layer"
     id="layer2"
     inkscape:label="Player">
    <path
       style="opacity:1;fill:#146464;fill-opacity:1;stroke:#000000;stroke-width:1.48598;stroke-miterlimit:4;stroke-dasharray:none;stroke-opacity:1"
       id="path35768"
       d="m 12.824319,7.6002346 c 1.08178,-0.132118 2.16573,-0.151534 3.25753,-0.149709 0.89278,0.01324 1.78832,0.02878 2.67731,0.102474 0.34126,0.0283 0.45553,0.04922 0.77998,0.09587 0.59712,0.09475 1.15687,0.290794 1.71077,0.486845 0.61966,0.225758 1.22128,0.481415 1.79781,0.77129 0.46849,0.241786 0.90458,0.519529 1.32797,0.808987 0.75055,0.5169434 1.52018,1.0188024 2.20444,1.5933784 0.0319,0.041 0.2381,0.231822 0.22551,0.285533 -0.002,0.01023 -0.0381,-0.01986 -0.0374,-0.0094 0.003,0.04328 0.0309,0.08314 0.045,0.125018 0.0203,0.06001 0.0387,0.120384 0.0581,0.180597 0.12782,0.334631 0.176,0.637098 0.15683,0.983182 -0.004,0.05767 -0.0104,0.115571 -0.0253,0.172213 -0.80357,4.698384 7.47983,5.609956 8.2834,0.91157 v 0 c 0.0567,-0.345848 0.0984,-0.693346 0.10269,-1.042539 -0.002,-0.376998 0.006,-0.503755 -0.0307,-0.887186 -0.0676,-0.697112 -0.23032,-1.384404 -0.47521,-2.0553584 -0.17996,-0.464357 -0.26812,-0.73958 -0.5168,-1.186645 -0.13038,-0.234368 -0.27106,-0.465437 -0.4269,-0.689573 -0.37313,-0.536641 -0.86249,-1.015543 -1.37332,-1.469967 -0.15817,-0.128769 -0.3134,-0.259904 -0.4745,-0.386319 -0.73512,-0.576855 -1.529,-1.102418 -2.30821,-1.639746 -0.74351,-0.50408 -1.51393,-0.983174 -2.33958,-1.398747 -0.16281,-0.08009 -0.32407,-0.162305 -0.48845,-0.240308 -0.75948,-0.360439 -1.55165,-0.676074 -2.35368,-0.970342 -0.41905,-0.146278 -0.65422,-0.232531 -1.08954,-0.366071 -0.83953,-0.2575349 -1.70553,-0.4616789 -2.59029,-0.5908989 -0.2387,-0.03099 -0.4766,-0.06631 -0.7161,-0.09303 -1.36589,-0.152476 -2.74885,-0.17833 -4.12555,-0.197625 -0.31655,4.45e-4 -0.63315,-0.0026 -0.94966,0.0013 -1.24227,0.01645 -2.4838,0.09271 -3.71217,0.243759 -5.8279101,0.7975339 -4.4218301,7.4087739 1.40608,6.6112339 z" />
    <path
       style="opacity:1;fill:#146464;fill-opacity:1;stroke:#000000;stroke-width:1.4675;stroke-miterlimit:4;stroke-dasharray:none;stroke-opacity:1"
       id="path38506"
       d="m 1.6177109,18.307141 c 0.301,0.407959 0.592177,0.823804 0.882872,1.240158 0.4699,0.688481 1.001946,1.323821 1.556582,1.934593 0.285614,0.308617 0.583834,0.603456 0.851928,0.929932 0.195111,0.239208 0.382929,0.484992 0.571281,0.73026 0.342106,0.435614 0.692085,0.86328 1.057469,1.276772 0.522926,0.5801 1.087725,1.114358 1.661742,1.635423 0.694136,0.603942 1.433684,1.144197 2.1949211,1.645919 0.86538,0.550546 1.8112,0.918182 2.770889,1.228414 0.672064,0.224032 1.358613,0.382144 2.052783,0.502713 0.682672,0.111353 1.373045,0.144597 2.062367,0.166331 0.627613,0.01702 1.254879,0.02655 1.881966,-0.0073 0.44173,-0.04091 0.87976,-0.116859 1.317897,-0.18803 0.02657,-0.0039 0.05313,-0.0084 0.07979,-0.01224 0.156392,-0.02301 -0.246985,0.0205 0.108235,-0.0073 0.292434,-0.02144 0.580525,-0.08018 0.865434,-0.151536 0.023,-0.0059 0.04609,-0.01184 0.06909,-0.01778 4.878435,-1.256232 3.216676,-8.632126 -1.661752,-7.375889 v 0 c -0.01284,0.0036 -0.02577,0.0067 -0.03869,0.0099 -0.07461,0.01948 0.179196,-0.03392 0.223619,-0.02944 -0.238177,0.01797 -0.475972,0.04238 -0.711814,0.08342 -0.232918,0.03782 -0.468046,0.06913 -0.698879,0.117012 -0.0723,0.02332 -0.01988,0.0088 -0.183707,0.009 -0.349925,5.04e-4 -0.699868,-0.0073 -1.049721,-0.01377 -0.381208,-0.01091 -0.763199,-0.02352 -1.141999,-0.07399 -0.386136,-0.06432 -0.765659,-0.149798 -1.138406,-0.279074 C 14.825001,21.542023 14.448607,21.41809 14.097105,21.227757 13.641542,20.934447 13.205241,20.60838 12.783285,20.26237 12.404128,19.921196 12.031542,19.570543 11.682937,19.193597 11.43259,18.914761 11.199574,18.620064 10.964275,18.326782 10.715266,18.002768 10.466426,17.678498 10.20688,17.363987 9.8648269,16.956322 9.5064339,16.566129 9.1381969,16.185468 c -0.339931,-0.3701 -0.666473,-0.755404 -0.950874,-1.176576 -0.323127,-0.462801 -0.64752,-0.924481 -0.981656,-1.378311 -3.092994,-4.2244038 -8.68106,0.452005 -5.588067,4.676414 z" />
    <ellipse
       style="opacity:1;fill:#0a0a0a;fill-opacity:1;stroke:#000000;stroke-width:0.604247;stroke-miterlimit:4;stroke-dasharray:none;stroke-opacity:1"
       id="path38923"
       cx="15.789498"
       cy="37.903694"
       rx="12.595108"
       ry="8.7905664"
       transform="matrix(0.73145803,-0.68188646,0.51841246,0.8551307,0,0)" />
    <ellipse
       style="opacity:1;fill:#0a0a0a;fill-opacity:1;stroke:#000000;stroke-width:0.79375;stroke-miterlimit:4;stroke-dasharray:none;stroke-opacity:1"
       id="path39215"
       cx="-2.994899"
       cy="29.469004"
       rx="1.074217"
       ry="6.1289225"
       transform="rotate(-41.764482)" />
    <g
       id="g39303"
       transform="translate(-91.025445,-20.82395)">
      <ellipse
         style="opacity:1;fill:#0a0a0a;fill-opacity:1;stroke:#000000;stroke-width:0.79375;stroke-miterlimit:4;stroke-dasharray:none;stroke-opacity:1"
         id="path39215-2"
         cx="71.900307"
         cy="106.96918"
         rx="1.074217"
         ry="6.1289225"
         transform="rotate(-41.764482)" />
    </g>
  </g>
  <g
     inkscape:label="Layer 1"
     inkscape:groupmode="layer"
     id="layer1">
    <ellipse
       style="opacity:1;fill:#646464;fill-opacity:1;stroke:#000000;stroke-width:1.40572;stroke-miterlimit:4;stroke-dasharray:none;stroke-opacity:1"
       id="path36474"
       cx="25.418467"
       cy="16.914667"
       rx="10.632187"
       ry="8.8480577" />
  </g>
</svg>
